{
    "accessors" : [
        {
            "bufferView" : 0,
            "componentType" : 5123,
            "count" : 4734,
            "max" : [
                4400
            ],
            "min" : [
                0
            ],
            "type" : "SCALAR"
        },
        {
            "bufferView" : 1,
            "componentType" : 5126,
            "count" : 4401,
            "max" : [
                0.8817421197891235,
                2.3102612495422363,
                0.4358380436897278
            ],
            "min" : [
                -0.8817421197891235,
                -0.05719180777668953,
                -0.45558586716651917
            ],
            "type" : "VEC3"
        },
        {
            "bufferView" : 2,
            "componentType" : 5126,
            "count" : 4401,
            "max" : [
                1.0,
                1.0,
                1.0
            ],
            "min" : [
                -1.0,
                -1.0,
                -1.0
            ],
            "type" : "VEC3"
        },
        {
            "bufferView" : 3,
            "componentType" : 5126,
            "count" : 4401,
            "max" : [
                1.0,
                0.7071070075035095,
                0.9688372611999512,
                1.0
            ],
            "min" : [
                -0.6989408731460571,
                -0.7071076035499573,
                -1.0,
                -1.0
            ],
            "type" : "VEC4"
        },
        {
            "bufferView" : 4,
            "componentType" : 5126,
            "count" : 4401,
            "max" : [
                0.9408710598945618,
                1.322120487689972
            ],
            "min" : [
                0.05912894010543823,
                -0.41473984718322754
            ],
            "type" : "VEC2"
        }
    ],
    "asset" : {
        "generator" : "Khronos Blender glTF 2.0 exporter",
        "version" : "2.0"
    },
    "bufferViews" : [
        {
            "buffer" : 0,
            "byteLength" : 9468,
            "byteOffset" : 0,
            "target" : 34963
        },
        {
            "buffer" : 0,
            "byteLength" : 52812,
            "byteOffset" : 9468,
            "target" : 34962
        },
        {
            "buffer" : 0,
            "byteLength" : 52812,
            "byteOffset" : 62280,
            "target" : 34962
        },
        {
            "buffer" : 0,
            "byteLength" : 70416,
            "byteOffset" : 115092,
            "target" : 34962
        },
        {
            "buffer" : 0,
            "byteLength" : 35208,
            "byteOffset" : 185508,
            "target" : 34962
        }
    ],
    "buffers" : [
        {
            "byteLength" : 220716,
            "uri" : "fan2.sturdy.bin"
        }
    ],
    "images" : [
        {
            "name" : "Tiles10_col",
            "uri" : "Tiles10_col.jpg"
        },
        {
            "name" : "Tiles10_nrm",
            "uri" : "Tiles10_nrm.jpg"
        },
        {
            "name" : "Tiles10_aorgh",
            "uri" : "Tiles10_aorgh.png"
        }
    ],
    "materials" : [
        {
            "name" : "Material",
            "normalTexture" : {
                "index" : 1
            },
            "pbrMetallicRoughness" : {
                "baseColorTexture" : {
                    "index" : 0
                },
                "metallicRoughnessTexture" : {
                    "index" : 2
                }
            }
        }
    ],
    "meshes" : [
        {
            "name" : "FanHead.001",
            "primitives" : [
                {
                    "attributes" : {
                        "NORMAL" : 2,
                        "POSITION" : 1,
                        "TANGENT" : 3,
                        "TEXCOORD_0" : 4
                    },
                    "indices" : 0,
                    "material" : 0
                }
            ]
        }
    ],
    "nodes" : [
        {
            "extras" : {
                "dockingRules" : "TODO",
                "method" : "POINT",
                "strength" : "TODO",
                "type" : "FLAT"
            },
            "name" : "attach_main",
            "rotation" : [
                -0.7071068286895752,
                0.0,
                -0.0,
                0.7071068286895752
            ],
            "scale" : [
                3.0,
                3.0,
                3.0
            ],
            "translation" : [
                9.934107758624577e-09,
                1.107790470123291,
                -0.33290863037109375
            ]
        },
        {
            "extras" : {
                "shape" : "cube"
            },
            "name" : "col_fanCollider",
            "scale" : [
                0.8944037556648254,
                0.8944037556648254,
                0.4472018778324127
            ],
            "translation" : [
                9.934107758624577e-09,
                1.107790470123291,
                -0.015536069869995117
            ]
        },
        {
            "extras" : {
                "shape" : "cube"
            },
            "name" : "col_nonfuncionalYagi",
            "rotation" : [
                -0.2588190734386444,
                0.0,
                -0.0,
                0.965925931930542
            ],
            "scale" : [
                0.033113643527030945,
                0.23895056545734406,
                0.10180485993623734
            ],
            "translation" : [
                -0.6904479265213013,
                2.098526954650879,
                -0.2707512676715851
            ]
        },
        {
            "children" : [
                0,
                1,
                2
            ],
            "extras" : {
                "func_jetEngine" : "{\"thrust\":25535, \"isp\": 1012}"
            },
            "mesh" : 0,
            "name" : "comp_Fan"
        },
        {
            "children" : [
                3
            ],
            "extras" : {
                "category" : "convenience",
                "cost" : 1.25,
                "country" : "Canarda",
                "description" : "A fan made for the dollar store.",
                "manufacturer" : "Gotzietec Industries",
                "massdry" : 2,
                "name" : "Vintage $200 Fan",
                "prop" : 1.0
            },
            "name" : "part_TestFan"
        }
    ],
    "samplers" : [
        {}
    ],
    "scene" : 0,
    "scenes" : [
        {
            "name" : "Scene",
            "nodes" : [
                4
            ]
        }
    ],
    "textures" : [
        {
            "sampler" : 0,
            "source" : 0
        },
        {
            "sampler" : 0,
            "source" : 1
        },
        {
            "sampler" : 0,
            "source" : 2
        }
    ]
}
